<svg id="visual" viewBox="0 0 900 450" width="900" height="450" xmlns="http://www.w3.org/2000/svg" xmlns:xlink="http://www.w3.org/1999/xlink" version="1.1"><rect x="0" y="0" width="900" height="450" fill="#001220"></rect><path d="M0 138L12.5 144.7C25 151.3 50 164.7 75 181C100 197.3 125 216.7 150 212.3C175 208 200 180 225 163.3C250 146.7 275 141.3 300 139.8C325 138.3 350 140.7 375 145.8C400 151 425 159 450 176C475 193 500 219 525 231.7C550 244.3 575 243.7 600 225.3C625 207 650 171 675 163.2C700 155.3 725 175.7 750 175.5C775 175.3 800 154.7 825 148.3C850 142 875 150 887.5 154L900 158L900 451L887.5 451C875 451 850 451 825 451C800 451 775 451 750 451C725 451 700 451 675 451C650 451 625 451 600 451C575 451 550 451 525 451C500 451 475 451 450 451C425 451 400 451 375 451C350 451 325 451 300 451C275 451 250 451 225 451C200 451 175 451 150 451C125 451 100 451 75 451C50 451 25 451 12.5 451L0 451Z" fill="#0066ff"></path><path d="M0 269L12.5 270.3C25 271.7 50 274.3 75 258.2C100 242 125 207 150 205.5C175 204 200 236 225 251.7C250 267.3 275 266.7 300 255.3C325 244 350 222 375 218.2C400 214.3 425 228.7 450 233.3C475 238 500 233 525 232.7C550 232.3 575 236.7 600 243.7C625 250.7 650 260.3 675 255.5C700 250.7 725 231.3 750 222C775 212.7 800 213.3 825 223C850 232.7 875 251.3 887.5 260.7L900 270L900 451L887.5 451C875 451 850 451 825 451C800 451 775 451 750 451C725 451 700 451 675 451C650 451 625 451 600 451C575 451 550 451 525 451C500 451 475 451 450 451C425 451 400 451 375 451C350 451 325 451 300 451C275 451 250 451 225 451C200 451 175 451 150 451C125 451 100 451 75 451C50 451 25 451 12.5 451L0 451Z" fill="#1159f1"></path><path d="M0 286L12.5 279.7C25 273.3 50 260.7 75 262.8C100 265 125 282 150 279.8C175 277.7 200 256.3 225 259.5C250 262.7 275 290.3 300 292.3C325 294.3 350 270.7 375 257C400 243.3 425 239.7 450 244C475 248.3 500 260.7 525 273C550 285.3 575 297.7 600 305.2C625 312.7 650 315.3 675 310.2C700 305 725 292 750 280.3C775 268.7 800 258.3 825 258.2C850 258 875 268 887.5 273L900 278L900 451L887.5 451C875 451 850 451 825 451C800 451 775 451 750 451C725 451 700 451 675 451C650 451 625 451 600 451C575 451 550 451 525 451C500 451 475 451 450 451C425 451 400 451 375 451C350 451 325 451 300 451C275 451 250 451 225 451C200 451 175 451 150 451C125 451 100 451 75 451C50 451 25 451 12.5 451L0 451Z" fill="#1a4be3"></path><path d="M0 334L12.5 335C25 336 50 338 75 341.5C100 345 125 350 150 349.5C175 349 200 343 225 341.2C250 339.3 275 341.7 300 342.7C325 343.7 350 343.3 375 337.5C400 331.7 425 320.3 450 319C475 317.7 500 326.3 525 323.5C550 320.7 575 306.3 600 311.2C625 316 650 340 675 347.5C700 355 725 346 750 335.5C775 325 800 313 825 309.3C850 305.7 875 310.3 887.5 312.7L900 315L900 451L887.5 451C875 451 850 451 825 451C800 451 775 451 750 451C725 451 700 451 675 451C650 451 625 451 600 451C575 451 550 451 525 451C500 451 475 451 450 451C425 451 400 451 375 451C350 451 325 451 300 451C275 451 250 451 225 451C200 451 175 451 150 451C125 451 100 451 75 451C50 451 25 451 12.5 451L0 451Z" fill="#203dd5"></path><path d="M0 365L12.5 368C25 371 50 377 75 380.2C100 383.3 125 383.7 150 380.7C175 377.7 200 371.3 225 372C250 372.7 275 380.3 300 382C325 383.7 350 379.3 375 382.2C400 385 425 395 450 392C475 389 500 373 525 366.2C550 359.3 575 361.7 600 360.5C625 359.3 650 354.7 675 352C700 349.3 725 348.7 750 350.3C775 352 800 356 825 364.2C850 372.3 875 384.7 887.5 390.8L900 397L900 451L887.5 451C875 451 850 451 825 451C800 451 775 451 750 451C725 451 700 451 675 451C650 451 625 451 600 451C575 451 550 451 525 451C500 451 475 451 450 451C425 451 400 451 375 451C350 451 325 451 300 451C275 451 250 451 225 451C200 451 175 451 150 451C125 451 100 451 75 451C50 451 25 451 12.5 451L0 451Z" fill="#242ec7"></path></svg>