<svg id="visual" viewBox="0 0 900 450" width="900" height="450" xmlns="http://www.w3.org/2000/svg" xmlns:xlink="http://www.w3.org/1999/xlink" version="1.1"><rect x="0" y="0" width="900" height="450" fill="#001220"></rect><defs><linearGradient id="grad1_0" x1="50%" y1="0%" x2="100%" y2="100%"><stop offset="10%" stop-color="#001220" stop-opacity="1"></stop><stop offset="90%" stop-color="#001220" stop-opacity="1"></stop></linearGradient></defs><defs><linearGradient id="grad2_0" x1="0%" y1="0%" x2="50%" y2="100%"><stop offset="10%" stop-color="#001220" stop-opacity="1"></stop><stop offset="90%" stop-color="#001220" stop-opacity="1"></stop></linearGradient></defs><g transform="translate(900, 0)"><path d="M0 315C-8.9 272 -17.8 229.1 -37.5 237C-57.3 245 -87.8 304 -97.3 299.6C-106.8 295.2 -95.3 227.5 -109 213.8C-122.6 200.2 -161.5 240.5 -174 239.5C-186.5 238.4 -172.5 196 -176.8 176.8C-181 157.6 -203.4 161.6 -206.3 149.9C-209.2 138.2 -192.6 110.8 -182.7 93.1C-172.7 75.3 -169.4 67.2 -191.2 62.1C-212.9 57 -259.6 54.9 -284.5 45.1C-309.3 35.2 -312.1 17.6 -315 0L0 0Z" fill="#00a2ff"></path></g><g transform="translate(0, 450)"><path d="M0 -315C5.6 -251.1 11.2 -187.2 31.4 -198.5C51.7 -209.9 86.7 -296.4 97.3 -299.6C108 -302.7 94.3 -222.5 102.1 -200.5C110 -178.5 139.5 -214.7 168.1 -231.4C196.8 -248.1 224.6 -245.2 220.6 -220.6C216.6 -196.1 180.8 -149.8 182.8 -132.8C184.8 -115.8 224.7 -128 242.4 -123.5C260.1 -118.9 255.6 -97.7 248.2 -80.7C240.8 -63.6 230.4 -50.9 241 -38.2C251.6 -25.4 283.3 -12.7 315 0L0 0Z" fill="#00a2ff"></path></g></svg>