<svg id="visual" viewBox="0 0 900 450" width="900" height="450" xmlns="http://www.w3.org/2000/svg" xmlns:xlink="http://www.w3.org/1999/xlink" version="1.1"><rect x="0" y="0" width="900" height="450" fill="#0f3255"></rect><g transform="translate(375.9256686536001 127.88281084976413)"><path d="M128.2 -218.1C160.1 -203.7 175.8 -157.1 269.7 -115.4C363.6 -73.7 535.8 -36.8 530.3 -3.2C524.8 30.5 341.7 61 249.4 105.6C157.2 150.2 155.8 208.9 129.4 240C103 271.1 51.5 274.5 -35.2 335.5C-121.9 396.4 -243.8 514.9 -285.3 492.5C-326.9 470.2 -288.2 307.1 -307.5 201.5C-326.9 96 -404.5 48 -376.1 16.4C-347.7 -15.2 -213.4 -30.5 -169.9 -94.1C-126.3 -157.8 -173.4 -269.8 -160.2 -295.1C-147 -320.3 -73.5 -258.6 -12.7 -236.7C48.2 -214.8 96.3 -232.5 128.2 -218.1" fill="#C62368"></path></g></svg>