<svg id="visual" viewBox="0 0 900 450" width="900" height="450" xmlns="http://www.w3.org/2000/svg" xmlns:xlink="http://www.w3.org/1999/xlink" version="1.1"><rect x="0" y="0" width="900" height="450" fill="#001220"></rect><path d="M0 406L18.8 399.3C37.7 392.7 75.3 379.3 112.8 375.3C150.3 371.3 187.7 376.7 225.2 378C262.7 379.3 300.3 376.7 337.8 381C375.3 385.3 412.7 396.7 450.2 397.5C487.7 398.3 525.3 388.7 562.8 382.3C600.3 376 637.7 373 675.2 376.8C712.7 380.7 750.3 391.3 787.8 391.2C825.3 391 862.7 380 881.3 374.5L900 369L900 451L881.3 451C862.7 451 825.3 451 787.8 451C750.3 451 712.7 451 675.2 451C637.7 451 600.3 451 562.8 451C525.3 451 487.7 451 450.2 451C412.7 451 375.3 451 337.8 451C300.3 451 262.7 451 225.2 451C187.7 451 150.3 451 112.8 451C75.3 451 37.7 451 18.8 451L0 451Z" fill="#6591e9"></path><path d="M0 379L18.8 382.8C37.7 386.7 75.3 394.3 112.8 399.2C150.3 404 187.7 406 225.2 407.7C262.7 409.3 300.3 410.7 337.8 406.3C375.3 402 412.7 392 450.2 388.7C487.7 385.3 525.3 388.7 562.8 391.3C600.3 394 637.7 396 675.2 396C712.7 396 750.3 394 787.8 390.8C825.3 387.7 862.7 383.3 881.3 381.2L900 379L900 451L881.3 451C862.7 451 825.3 451 787.8 451C750.3 451 712.7 451 675.2 451C637.7 451 600.3 451 562.8 451C525.3 451 487.7 451 450.2 451C412.7 451 375.3 451 337.8 451C300.3 451 262.7 451 225.2 451C187.7 451 150.3 451 112.8 451C75.3 451 37.7 451 18.8 451L0 451Z" fill="#3e69db"></path><path d="M0 428L18.8 426C37.7 424 75.3 420 112.8 417.2C150.3 414.3 187.7 412.7 225.2 410.5C262.7 408.3 300.3 405.7 337.8 406.7C375.3 407.7 412.7 412.3 450.2 416.3C487.7 420.3 525.3 423.7 562.8 421.3C600.3 419 637.7 411 675.2 407.7C712.7 404.3 750.3 405.7 787.8 406.5C825.3 407.3 862.7 407.7 881.3 407.8L900 408L900 451L881.3 451C862.7 451 825.3 451 787.8 451C750.3 451 712.7 451 675.2 451C637.7 451 600.3 451 562.8 451C525.3 451 487.7 451 450.2 451C412.7 451 375.3 451 337.8 451C300.3 451 262.7 451 225.2 451C187.7 451 150.3 451 112.8 451C75.3 451 37.7 451 18.8 451L0 451Z" fill="#243dc7"></path></svg>