<svg id="visual" viewBox="0 0 900 450" width="900" height="450" xmlns="http://www.w3.org/2000/svg" xmlns:xlink="http://www.w3.org/1999/xlink" version="1.1"><rect x="0" y="0" width="900" height="450" fill="#1c3146"></rect><path d="M0 197L129 244L257 239L386 205L514 211L643 208L771 246L900 254L900 451L771 451L643 451L514 451L386 451L257 451L129 451L0 451Z" fill="#fcaf3c"></path><path d="M0 304L129 240L257 299L386 265L514 294L643 291L771 248L900 300L900 451L771 451L643 451L514 451L386 451L257 451L129 451L0 451Z" fill="#bfb135"></path><path d="M0 306L129 279L257 317L386 341L514 313L643 302L771 304L900 316L900 451L771 451L643 451L514 451L386 451L257 451L129 451L0 451Z" fill="#86ac46"></path><path d="M0 376L129 365L257 328L386 338L514 380L643 374L771 385L900 325L900 451L771 451L643 451L514 451L386 451L257 451L129 451L0 451Z" fill="#4fa25e"></path><path d="M0 402L129 410L257 423L386 393L514 397L643 381L771 377L900 408L900 451L771 451L643 451L514 451L386 451L257 451L129 451L0 451Z" fill="#009473"></path></svg>