<svg id="visual" viewBox="0 0 900 450" width="900" height="450" xmlns="http://www.w3.org/2000/svg" xmlns:xlink="http://www.w3.org/1999/xlink" version="1.1"><rect x="0" y="0" width="900" height="450" fill="#0f3255"></rect><g transform="translate(456.04892751300906 232.33170627819257)"><path d="M251.2 -379.8C296.7 -312.7 284.8 -200.7 331 -98.2C377.3 4.3 481.6 97.3 451.9 134C422.3 170.6 258.8 150.8 161.1 217.8C63.5 284.7 31.7 438.4 0.7 437.4C-30.3 436.4 -60.6 280.8 -106.3 196.9C-151.9 113.1 -212.9 101 -295.8 48.3C-378.8 -4.4 -483.6 -97.8 -467.6 -153.5C-451.7 -209.2 -314.9 -227.2 -216.8 -277.1C-118.7 -327.1 -59.4 -409 21.7 -439C102.9 -468.9 205.7 -446.8 251.2 -379.8" fill="#000000"></path></g></svg>