<svg id="visual" viewBox="0 0 900 450" width="900" height="450" xmlns="http://www.w3.org/2000/svg" xmlns:xlink="http://www.w3.org/1999/xlink" version="1.1"><rect x="0" y="0" width="900" height="450" fill="#001122"></rect><g transform="translate(283.6067410916495 263.88939662193513)"><path d="M231.2 -321.1C278.2 -329.5 280.1 -229.1 354.7 -140.2C429.3 -51.2 576.5 26.5 593.8 103.6C611 180.7 498.2 257.3 378.1 241.8C258 226.2 130.5 118.4 52.4 110.2C-25.8 102 -54.8 193.5 -55.3 191.7C-55.8 190 -27.9 95 -23.5 48.9C-19.1 2.8 -38.3 5.5 -91.8 -18.9C-145.3 -43.4 -233.2 -95 -256.3 -147.1C-279.3 -199.3 -237.5 -251.9 -184 -240.5C-130.5 -229 -65.2 -153.5 13.4 -174.4C92.1 -195.3 184.2 -312.6 231.2 -321.1" fill="#CCCCCC"></path></g></svg>