<svg xmlns="http://www.w3.org/2000/svg" version="1.1" xmlns:xlink="http://www.w3.org/1999/xlink" xmlns:svgjs="http://svgjs.com/svgjs" width="1500" height="1080" preserveAspectRatio="none" viewBox="0 0 1500 1080"><g mask="url(&quot;#SvgjsMask1102&quot;)" fill="none"><rect width="1500" height="1080" x="0" y="0" fill="url(#SvgjsLinearGradient1103)"></rect><path d="M811.89 914.72 a181.67 181.67 0 1 0 363.34 0 a181.67 181.67 0 1 0 -363.34 0z" fill="rgba(28, 83, 142, 0.4)" class="triangle-float2"></path><path d="M432.36 2.42 a262.8 262.8 0 1 0 525.6 0 a262.8 262.8 0 1 0 -525.6 0z" fill="rgba(28, 83, 142, 0.4)" class="triangle-float3"></path><path d="M537.7 597.79 a329.21 329.21 0 1 0 658.42 0 a329.21 329.21 0 1 0 -658.42 0z" fill="rgba(28, 83, 142, 0.4)" class="triangle-float2"></path><path d="M-136.56 446.52 a315.8 315.8 0 1 0 631.6 0 a315.8 315.8 0 1 0 -631.6 0z" fill="rgba(28, 83, 142, 0.4)" class="triangle-float3"></path><path d="M812.01 268.52 a334.02 334.02 0 1 0 668.04 0 a334.02 334.02 0 1 0 -668.04 0z" fill="rgba(28, 83, 142, 0.4)" class="triangle-float1"></path><path d="M896.22 831.68 a233.3 233.3 0 1 0 466.6 0 a233.3 233.3 0 1 0 -466.6 0z" fill="rgba(28, 83, 142, 0.4)" class="triangle-float3"></path></g><defs><mask id="SvgjsMask1102"><rect width="1500" height="1080" fill="#ffffff"></rect></mask><linearGradient x1="100%" y1="50%" x2="0%" y2="50%" gradientUnits="userSpaceOnUse" id="SvgjsLinearGradient1103"><stop stop-color="#0e2a47" offset="0"></stop><stop stop-color="rgba(16, 16, 14, 1)" offset="0.24"></stop><stop stop-color="rgba(16, 16, 14, 1)" offset="0.26"></stop><stop stop-color="rgba(16, 14, 14, 1)" offset="0.3"></stop><stop stop-color="rgba(16, 14, 14, 1)" offset="0.45"></stop><stop stop-color="rgba(16, 14, 14, 1)" offset="0.57"></stop><stop stop-color="rgba(16, 14, 14, 1)" offset="1"></stop></linearGradient><style>
            @keyframes float1 {
                0%{transform: translate(0, 0)}
                50%{transform: translate(-10px, 0)}
                100%{transform: translate(0, 0)}
            }

            .triangle-float1 {
                animation: float1 5s infinite;
            }

            @keyframes float2 {
                0%{transform: translate(0, 0)}
                50%{transform: translate(-5px, -5px)}
                100%{transform: translate(0, 0)}
            }

            .triangle-float2 {
                animation: float2 4s infinite;
            }

            @keyframes float3 {
                0%{transform: translate(0, 0)}
                50%{transform: translate(0, -10px)}
                100%{transform: translate(0, 0)}
            }

            .triangle-float3 {
                animation: float3 6s infinite;
            }
        </style></defs></svg>