<svg xmlns="http://www.w3.org/2000/svg" version="1.1" xmlns:xlink="http://www.w3.org/1999/xlink" xmlns:svgjs="http://svgjs.com/svgjs" width="1500" height="1000" preserveAspectRatio="none" viewBox="0 0 1500 1000"><g mask="url(&quot;#SvgjsMask1018&quot;)" fill="none"><rect width="1500" height="1000" x="0" y="0" fill="#0e2a47"></rect><path d="M367.2 1159.92C556.21 997.12 439.66 251.93 757.87 241.73 1076.08 231.53 1317.82 648.7 1539.2 661.73" stroke="rgba(51,121,194,0.58)" stroke-width="2"></path><path d="M924.51 1113.41C1066.95 965.02 981.44 344.55 1205.08 339.96 1428.71 335.37 1585.64 780.31 1766.21 809.96" stroke="rgba(51,121,194,0.58)" stroke-width="2"></path><path d="M739.12 1017.32C867.89 956.89 733.21 614 1054.31 543.62 1375.42 473.24 1493.67 124.66 1684.7 103.62" stroke="rgba(51,121,194,0.58)" stroke-width="2"></path><path d="M435.79 1070.26C630.55 892.47 483.61 121.9 832.28 92.79 1180.95 63.68 1418.15 330.18 1625.26 332.79" stroke="rgba(51,121,194,0.58)" stroke-width="2"></path><path d="M370.98 1087.92C556.9 1008.74 569.75 446.84 838.29 428.4 1106.82 409.96 1071.94 553.4 1305.59 553.4 1539.25 553.4 1651.97 429.47 1772.9 428.4" stroke="rgba(51,121,194,0.58)" stroke-width="2"></path></g><defs><mask id="SvgjsMask1018"><rect width="1500" height="1000" fill="#ffffff"></rect></mask></defs></svg>