<svg xmlns="http://www.w3.org/2000/svg" version="1.1" xmlns:xlink="http://www.w3.org/1999/xlink" xmlns:svgjs="http://svgjs.com/svgjs" width="1500" height="1000" preserveAspectRatio="none" viewBox="0 0 1500 1000"><g mask="url(&quot;#SvgjsMask1068&quot;)" fill="none"><rect width="1500" height="1000" x="0" y="0" fill="rgba(81, 46, 95, 1)"></rect><path d="M0,518.302C97.835,534.692,194.039,485.303,279.289,434.582C366.761,382.539,447.197,316.048,492.847,225.076C539.42,132.264,548.116,26.066,536.038,-77.071C523.732,-182.155,491.311,-285.752,423.515,-366.978C355.023,-449.038,263.087,-529.173,156.239,-532.102C51.624,-534.97,-13.295,-416.255,-112.066,-381.661C-203.053,-349.793,-326.881,-410.741,-392.34,-339.965C-457.377,-269.646,-402.221,-154.445,-410.474,-59.017C-418.129,29.49,-475.768,119.614,-439.086,200.524C-402.397,281.451,-296.976,298.004,-224.995,350.099C-147.57,406.134,-94.261,502.51,0,518.302" fill="#351e3e"></path><path d="M1500 1541.546C1614.481 1548.046 1748.704 1597.3809999999999 1836.554 1523.6889999999999 1925.859 1448.776 1889.6399999999999 1303.959 1918.013 1190.9 1940.315 1102.035 1979.5720000000001 1021.625 1985.498 930.196 1992.686 819.294 2023.094 693.471 1955.9940000000001 604.879 1888.769 516.1220000000001 1761.718 490.219 1650.403 487.774 1551.889 485.61 1476.162 569.557 1380.269 592.2339999999999 1276.243 616.835 1155.527 564.39 1067.85 625.54 976.379 689.336 934.098 805.991 916.001 916.034 897.695 1027.348 917.773 1141.892 966.177 1243.789 1014.127 1344.73 1089.545 1432.3809999999999 1187.141 1486.818 1281.511 1539.4560000000001 1392.116 1535.421 1500 1541.546" fill="#6d3e80"></path></g><defs><mask id="SvgjsMask1068"><rect width="1500" height="1000" fill="#ffffff"></rect></mask></defs></svg>