<svg xmlns="http://www.w3.org/2000/svg" version="1.1" xmlns:xlink="http://www.w3.org/1999/xlink" xmlns:svgjs="http://svgjs.com/svgjs" width="1500" height="1080" preserveAspectRatio="none" viewBox="0 0 1500 1080"><g mask="url(&quot;#SvgjsMask1100&quot;)" fill="none"><rect width="1500" height="1080" x="0" y="0" fill="url(#SvgjsLinearGradient1101)"></rect><path d="M668.39 418.75 a315.17 315.17 0 1 0 630.34 0 a315.17 315.17 0 1 0 -630.34 0z" fill="rgba(28, 83, 142, 0.4)" class="triangle-float1"></path><path d="M112.17 670.14 a196.47 196.47 0 1 0 392.94 0 a196.47 196.47 0 1 0 -392.94 0z" fill="rgba(28, 83, 142, 0.4)" class="triangle-float1"></path><path d="M518.62 992.61 a355.55 355.55 0 1 0 711.1 0 a355.55 355.55 0 1 0 -711.1 0z" fill="rgba(28, 83, 142, 0.4)" class="triangle-float2"></path><path d="M1174.76 805.52 a269.2 269.2 0 1 0 538.4 0 a269.2 269.2 0 1 0 -538.4 0z" fill="rgba(28, 83, 142, 0.4)" class="triangle-float1"></path><path d="M1102.02 80.74 a202.9 202.9 0 1 0 405.8 0 a202.9 202.9 0 1 0 -405.8 0z" fill="rgba(28, 83, 142, 0.4)" class="triangle-float2"></path><path d="M242.05 1033.02 a282.43 282.43 0 1 0 564.86 0 a282.43 282.43 0 1 0 -564.86 0z" fill="rgba(28, 83, 142, 0.4)" class="triangle-float1"></path></g><defs><mask id="SvgjsMask1100"><rect width="1500" height="1080" fill="#ffffff"></rect></mask><linearGradient x1="100%" y1="50%" x2="0%" y2="50%" gradientUnits="userSpaceOnUse" id="SvgjsLinearGradient1101"><stop stop-color="#0e2a47" offset="0"></stop><stop stop-color="rgba(16, 16, 14, 1)" offset="0.24"></stop><stop stop-color="rgba(16, 16, 14, 1)" offset="0.26"></stop><stop stop-color="rgba(16, 14, 14, 1)" offset="0.3"></stop><stop stop-color="rgba(16, 14, 14, 1)" offset="0.45"></stop><stop stop-color="rgba(16, 14, 14, 1)" offset="0.57"></stop><stop stop-color="rgba(16, 14, 14, 1)" offset="1"></stop></linearGradient><style>
            @keyframes float1 {
                0%{transform: translate(0, 0)}
                50%{transform: translate(-10px, 0)}
                100%{transform: translate(0, 0)}
            }

            .triangle-float1 {
                animation: float1 5s infinite;
            }

            @keyframes float2 {
                0%{transform: translate(0, 0)}
                50%{transform: translate(-5px, -5px)}
                100%{transform: translate(0, 0)}
            }

            .triangle-float2 {
                animation: float2 4s infinite;
            }

            @keyframes float3 {
                0%{transform: translate(0, 0)}
                50%{transform: translate(0, -10px)}
                100%{transform: translate(0, 0)}
            }

            .triangle-float3 {
                animation: float3 6s infinite;
            }
        </style></defs></svg>